<svg width="20" height="20" viewBox="0 0 20 20" fill="none" xmlns="http://www.w3.org/2000/svg">
<g id="Facebook">
<path id="Vector" d="M8.75 17.4167C5.20833 16.7917 2.5 13.7083 2.5 10C2.5 5.875 5.875 2.5 10 2.5C14.125 2.5 17.5 5.875 17.5 10C17.5 13.7083 14.7917 16.7917 11.25 17.4167L10.8333 17.0833H9.16667L8.75 17.4167Z" fill="#1B18AB"/>
<path id="Vector_2" d="M12.9167 12.0833L13.25 9.99996H11.25V8.54163C11.25 7.95829 11.4583 7.49996 12.375 7.49996H13.3333V5.58329C12.7917 5.49996 12.2083 5.41663 11.6667 5.41663C9.95833 5.41663 8.75 6.45829 8.75 8.33329V9.99996H6.875V12.0833H8.75V17.375C9.16667 17.4583 9.58333 17.5 10 17.5C10.4167 17.5 10.8333 17.4583 11.25 17.375V12.0833H12.9167Z" fill="white"/>
</g>
</svg>
